<svg width="25" height="33" fill="none" xmlns="http://www.w3.org/2000/svg"><path d="M25 8.701l-6.73-1.933L16.345 0H2.885A2.893 2.893 0 000 2.9v27.2C0 31.7 1.291 33 2.885 33h19.23A2.893 2.893 0 0025 30.1V8.7z" fill="#4086F4"/><path d="M25 8.701h-6.73a1.934 1.934 0 01-1.924-1.933V0a.9.9 0 01.673.29l7.693 7.734a.909.909 0 01.288.677z" fill="#80AEF8"/><path d="M18.27 15.533H6.73a.964.964 0 01-.96-.967c0-.534.43-.966.96-.966h11.54c.53 0 .96.432.96.966 0 .535-.43.967-.96.967zm0 3.867H6.73a.964.964 0 01-.96-.966c0-.535.43-.967.96-.967h11.54c.53 0 .96.432.96.967 0 .534-.43.966-.96.966zm0 3.868H6.73a.964.964 0 01-.96-.967c0-.535.43-.967.96-.967h11.54c.53 0 .96.432.96.967 0 .534-.43.967-.96.967zm-3.847 3.867H6.731a.964.964 0 01-.962-.967c0-.534.43-.967.962-.967h7.692c.532 0 .962.433.962.967s-.43.967-.962.967z" fill="#FFF5F5"/></svg>