<svg width="16" height="16" fill="none" xmlns="http://www.w3.org/2000/svg"><path d="M10.597 7.702A.667.667 0 0010 7.333H8.667V.667a.666.666 0 10-1.334 0v6.666H6A.667.667 0 005.467 8.4l2 2.667c.008.011.022.015.031.026a.652.652 0 00.154.128c.024.015.043.034.069.046a.65.65 0 00.279.066.66.66 0 00.28-.066c.025-.012.045-.031.068-.046a.652.652 0 00.154-.128c.009-.011.023-.015.031-.026l2-2.667a.666.666 0 00.064-.698z" fill="#fff"/><path d="M15.333 10a.666.666 0 00-.666.667v2c0 1.102-.898 2-2 2H3.333c-1.102 0-2-.898-2-2v-2a.667.667 0 10-1.333 0v2A3.337 3.337 0 003.333 16h9.334A3.337 3.337 0 0016 12.667v-2a.667.667 0 00-.667-.667z" fill="#fff"/></svg>