<svg width="26" height="26" fill="none" xmlns="http://www.w3.org/2000/svg"><path d="M22.326 4.968L17.51.152A.518.518 0 0017.143 0H4.04a.518.518 0 00-.518.518v24.964c0 .286.232.518.518.518h17.92a.518.518 0 00.518-.518V5.335a.518.518 0 00-.152-.367zm-4.665-3.2l3.049 3.049h-3.05V1.768zm3.781 23.196H4.558V1.036h12.068v4.299c0 .286.232.518.517.518h4.3v19.111z" fill="#fff"/><path d="M7.173 9.012h8.572a.518.518 0 000-1.036H7.173a.518.518 0 100 1.036zm11.654 2.382H7.173a.518.518 0 100 1.036h11.654a.518.518 0 000-1.036zm0 3.419H7.173a.518.518 0 000 1.036h11.654a.518.518 0 000-1.036zm0 3.418H7.173a.518.518 0 100 1.036h11.654a.518.518 0 100-1.036zm-1.14-9.219h1.14a.518.518 0 000-1.036h-1.14a.518.518 0 000 1.036z" fill="#fff"/></svg>