<svg width="26" height="26" fill="none" xmlns="http://www.w3.org/2000/svg"><path d="M11.534 0a.508.508 0 00-.508.508v3.131a.508.508 0 101.016 0V.508A.508.508 0 0011.534 0zm6.664 6.666h-3.131a.508.508 0 100 1.016h3.131a.508.508 0 100-1.016zM8 6.664H4.868a.508.508 0 100 1.016H8a.508.508 0 100-1.016zm1.022-2.722L7.543 2.464a.508.508 0 00-.718.718L8.304 4.66a.506.506 0 00.718 0 .508.508 0 000-.718zm7.22-1.477a.508.508 0 00-.718 0l-1.478 1.478a.508.508 0 00.718.718l1.478-1.478a.508.508 0 000-.718z" fill="#fff"/><path d="M19.76 11.563c-.342 0-.663.093-.94.254a1.882 1.882 0 00-1.801-1.344c-.54 0-1.028.23-1.371.596a1.874 1.874 0 00-2.235-.386v-3.51a1.881 1.881 0 00-1.879-1.879 1.881 1.881 0 00-1.879 1.879v2.678a.508.508 0 101.016 0V7.173a.864.864 0 011.727 0v8.501a.508.508 0 001.015 0v-3.322a.864.864 0 011.727 0v3.322a.508.508 0 001.015 0v-3.322a.864.864 0 011.727 0v3.322a.508.508 0 001.015 0v-2.232a.864.864 0 011.727 0v5.31c0 .379-.034.758-.101 1.126a.508.508 0 10.999.182c.078-.428.118-.868.118-1.308v-5.31a1.881 1.881 0 00-1.88-1.879z" fill="#fff"/><path d="M19.36 23.335a.508.508 0 00-.718-.025 6.21 6.21 0 01-4.25 1.674 6.266 6.266 0 01-5.612-3.521l-2.339-4.844a.935.935 0 01.373-1.211.937.937 0 011.261.321l1.654 2.715a.508.508 0 00.942-.264v-4.977a.508.508 0 00-1.016 0v3.168l-.713-1.17a1.935 1.935 0 00-2.636-.673 1.955 1.955 0 00-.78 2.533l2.34 4.843a7.24 7.24 0 002.674 2.987A7.239 7.239 0 0014.392 26a7.222 7.222 0 004.943-1.947.508.508 0 00.025-.718zm1.314-1.723a.512.512 0 00-.36-.148.512.512 0 00-.507.507.511.511 0 00.508.508.512.512 0 00.507-.508.512.512 0 00-.148-.359zM10.522 11.22a.511.511 0 00-.718 0 .511.511 0 00.359.867.511.511 0 00.508-.509.512.512 0 00-.149-.359z" fill="#fff"/></svg>