<svg width="56" height="50" fill="none" xmlns="http://www.w3.org/2000/svg"><path d="M41.043 13.184l-10.254-2.93L27.86 0H7.352a4.395 4.395 0 00-4.395 4.395v41.21A4.395 4.395 0 007.352 50h29.296a4.395 4.395 0 004.395-4.395V13.184z" fill="#FABE2C"/><path d="M41.043 13.184H30.789a2.938 2.938 0 01-2.93-2.93V0c.381 0 .762.146 1.026.44l11.718 11.718c.294.264.44.645.44 1.026z" fill="#FDD929"/><path d="M30.79 39.648H13.21a1.463 1.463 0 01-1.464-1.464V23.535c0-.81.655-1.465 1.465-1.465h17.578c.81 0 1.465.655 1.465 1.465v14.649c0 .81-.655 1.464-1.465 1.464zm-16.114-4.394h14.648v-8.79H14.676v8.79z" fill="#fff"/><path d="M54.043 13.184l-10.254-2.93L40.86 0H20.352a4.395 4.395 0 00-4.395 4.395v41.21A4.395 4.395 0 0020.352 50h29.296a4.395 4.395 0 004.395-4.395V13.184z" fill="#4086F4"/><path d="M54.043 13.184H43.789a2.938 2.938 0 01-2.93-2.93V0c.381 0 .762.146 1.026.44l11.718 11.718c.294.264.44.645.44 1.026z" fill="#80AEF8"/><path d="M43.79 23.535H26.21a1.464 1.464 0 110-2.93h17.58a1.464 1.464 0 110 2.93zm0 5.86H26.21a1.464 1.464 0 110-2.93h17.58a1.464 1.464 0 110 2.93zm0 5.859H26.21a1.464 1.464 0 110-2.93h17.58a1.464 1.464 0 110 2.93zm-5.86 5.859H26.21a1.464 1.464 0 110-2.93h11.72a1.464 1.464 0 110 2.93z" fill="#fff"/></svg>