<svg width="25" height="33" fill="none" xmlns="http://www.w3.org/2000/svg"><g clip-path="url(#clip0)"><path d="M24.99 8.701l-6.746-1.933L16.316 0H2.824a2.896 2.896 0 00-2.89 2.9v27.2c0 1.601 1.294 2.9 2.89 2.9H22.1a2.896 2.896 0 002.89-2.9V8.7z" fill="#FABE2C"/><path d="M24.99 8.701h-6.746c-1.06 0-1.928-.87-1.928-1.933V0c.25 0 .501.097.675.29l7.71 7.734a.912.912 0 01.289.677z" fill="#FDD929"/><path d="M18.244 26.168H6.679a.965.965 0 01-.964-.967v-9.668c0-.534.431-.967.964-.967h11.565c.532 0 .963.433.963.967v9.668a.965.965 0 01-.963.967zm-10.601-2.9h9.637v-5.801H7.643v5.8z" fill="#FFF5F5"/></g><defs><clipPath id="clip0"><path fill="#fff" d="M0 0h25v33H0z"/></clipPath></defs></svg>