<svg width="25" height="33" viewBox="0 0 25 33" fill="none" xmlns="http://www.w3.org/2000/svg">
<path d="M25 8.70117L18.2692 6.76758L16.3462 0H2.88462C1.29147 0 0 1.29854 0 2.90039V30.0996C0 31.7015 1.29147 33 2.88462 33H22.1154C23.7085 33 25 31.7015 25 30.0996V8.70117Z" fill="#4086F4"/>
<path d="M25 8.70117H18.2693C17.2116 8.70117 16.3462 7.83105 16.3462 6.76758V0C16.5962 0 16.8462 0.0966797 17.0192 0.290104L24.7115 8.02448C24.9039 8.19844 25 8.4498 25 8.70117Z" fill="#80AEF8"/>
<path d="M18.2693 15.5332H6.73083C6.19935 15.5332 5.76929 15.1008 5.76929 14.5664C5.76929 14.032 6.19935 13.5996 6.73083 13.5996H18.2693C18.8008 13.5996 19.2308 14.032 19.2308 14.5664C19.2308 15.1008 18.8008 15.5332 18.2693 15.5332Z" fill="#FFF5F5"/>
<path d="M18.2693 19.4004H6.73083C6.19935 19.4004 5.76929 18.968 5.76929 18.4336C5.76929 17.8992 6.19935 17.4668 6.73083 17.4668H18.2693C18.8008 17.4668 19.2308 17.8992 19.2308 18.4336C19.2308 18.968 18.8008 19.4004 18.2693 19.4004Z" fill="#FFF5F5"/>
<path d="M18.2693 23.2676H6.73083C6.19935 23.2676 5.76929 22.8352 5.76929 22.3008C5.76929 21.7664 6.19935 21.334 6.73083 21.334H18.2693C18.8008 21.334 19.2308 21.7664 19.2308 22.3008C19.2308 22.8352 18.8008 23.2676 18.2693 23.2676Z" fill="#FFF5F5"/>
<path d="M14.4231 27.1348H6.73083C6.19935 27.1348 5.76929 26.7023 5.76929 26.168C5.76929 25.6336 6.19935 25.2012 6.73083 25.2012H14.4231C14.9546 25.2012 15.3847 25.6336 15.3847 26.168C15.3847 26.7023 14.9546 27.1348 14.4231 27.1348Z" fill="#FFF5F5"/>
</svg>
