<svg width="56" height="50" viewBox="0 0 56 50" fill="none" xmlns="http://www.w3.org/2000/svg">
<path d="M41.043 13.1836L30.7891 10.2539L27.8594 0H7.35156C4.92451 0 2.95703 1.96748 2.95703 4.39453V45.6055C2.95703 48.0325 4.92451 50 7.35156 50H36.6484C39.0755 50 41.043 48.0325 41.043 45.6055V13.1836Z" fill="#FABE2C"/>
<path d="M41.043 13.1836H30.7891C29.1777 13.1836 27.8594 11.8652 27.8594 10.2539V0C28.2402 0 28.6211 0.146484 28.8847 0.439551L40.6034 12.1583C40.8965 12.4219 41.043 12.8027 41.043 13.1836Z" fill="#FDD929"/>
<path d="M30.7891 39.6484H13.2109C12.4013 39.6484 11.7461 38.9933 11.7461 38.1836V23.5352C11.7461 22.7255 12.4013 22.0703 13.2109 22.0703H30.7891C31.5987 22.0703 32.2539 22.7255 32.2539 23.5352V38.1836C32.2539 38.9933 31.5987 39.6484 30.7891 39.6484ZM14.6758 35.2539H29.3242V26.4648H14.6758V35.2539Z" fill="white"/>
<path d="M54.043 13.1836L43.7891 10.2539L40.8594 0H20.3516C17.9245 0 15.957 1.96748 15.957 4.39453V45.6055C15.957 48.0325 17.9245 50 20.3516 50H49.6484C52.0755 50 54.043 48.0325 54.043 45.6055V13.1836Z" fill="#4086F4"/>
<path d="M54.043 13.1836H43.7891C42.1777 13.1836 40.8594 11.8652 40.8594 10.2539V0C41.2402 0 41.6211 0.146484 41.8847 0.439551L53.6034 12.1583C53.8965 12.4219 54.043 12.8027 54.043 13.1836Z" fill="#80AEF8"/>
<path d="M43.7891 23.5352H26.2109C25.4013 23.5352 24.7461 22.88 24.7461 22.0703C24.7461 21.2606 25.4013 20.6055 26.2109 20.6055H43.7891C44.5987 20.6055 45.2539 21.2606 45.2539 22.0703C45.2539 22.88 44.5987 23.5352 43.7891 23.5352Z" fill="white"/>
<path d="M43.7891 29.3945H26.2109C25.4013 29.3945 24.7461 28.7394 24.7461 27.9297C24.7461 27.12 25.4013 26.4648 26.2109 26.4648H43.7891C44.5987 26.4648 45.2539 27.12 45.2539 27.9297C45.2539 28.7394 44.5987 29.3945 43.7891 29.3945Z" fill="white"/>
<path d="M43.7891 35.2539H26.2109C25.4013 35.2539 24.7461 34.5987 24.7461 33.7891C24.7461 32.9794 25.4013 32.3242 26.2109 32.3242H43.7891C44.5987 32.3242 45.2539 32.9794 45.2539 33.7891C45.2539 34.5987 44.5987 35.2539 43.7891 35.2539Z" fill="white"/>
<path d="M37.9297 41.1133H26.2109C25.4013 41.1133 24.7461 40.4581 24.7461 39.6484C24.7461 38.8388 25.4013 38.1836 26.2109 38.1836H37.9297C38.7394 38.1836 39.3945 38.8388 39.3945 39.6484C39.3945 40.4581 38.7394 41.1133 37.9297 41.1133Z" fill="white"/>
</svg>
