<svg width="25" height="33" viewBox="0 0 25 33" fill="none" xmlns="http://www.w3.org/2000/svg">
<g clip-path="url(#clip0)">
<path d="M24.9896 8.70117L18.2437 6.76758L16.3162 0H2.82424C1.2275 0 -0.0668945 1.29854 -0.0668945 2.90039V30.0996C-0.0668945 31.7015 1.2275 33 2.82424 33H22.0985C23.6952 33 24.9896 31.7015 24.9896 30.0996V8.70117Z" fill="#FABE2C"/>
<path d="M24.9896 8.70117H18.2436C17.1835 8.70117 16.3162 7.83105 16.3162 6.76758V0C16.5667 0 16.8173 0.0966797 16.9907 0.290104L24.7004 8.02448C24.8932 8.19844 24.9896 8.4498 24.9896 8.70117Z" fill="#FDD929"/>
<path d="M18.2436 26.168H6.67905C6.14637 26.168 5.71533 25.7356 5.71533 25.2012V15.5332C5.71533 14.9988 6.14637 14.5664 6.67905 14.5664H18.2436C18.7763 14.5664 19.2073 14.9988 19.2073 15.5332V25.2012C19.2073 25.7356 18.7763 26.168 18.2436 26.168ZM7.64276 23.2676H17.2799V17.4668H7.64276V23.2676Z" fill="#FFF5F5"/>
</g>
<defs>
<clipPath id="clip0">
<rect width="25" height="33" fill="white"/>
</clipPath>
</defs>
</svg>
